<?xml version="1.0" encoding="UTF-8" standalone="no"?>
<!-- Generator: Gravit.io -->
<svg xmlns="http://www.w3.org/2000/svg" xmlns:xlink="http://www.w3.org/1999/xlink" style="isolation:isolate" viewBox="198.541 108.415 184.585 71.757" width="184.585pt" height="71.757pt"><g><path d=" M 324.233 124.964 L 335.757 124.964 L 335.757 162.35 L 324.233 162.35 L 324.233 155.583 L 324.233 155.583 Q 322.625 158.866 319.443 160.809 L 319.443 160.809 L 319.443 160.809 Q 316.26 162.752 312.039 162.752 L 312.039 162.752 L 312.039 162.752 Q 305.607 162.752 301.821 158.464 L 301.821 158.464 L 301.821 158.464 Q 298.036 154.176 298.036 146.672 L 298.036 146.672 L 298.036 124.964 L 309.426 124.964 L 309.426 145.265 L 309.426 145.265 Q 309.426 149.084 311.403 151.195 L 311.403 151.195 L 311.403 151.195 Q 313.379 153.305 316.729 153.305 L 316.729 153.305 L 316.729 153.305 Q 320.213 153.305 322.223 151.094 L 322.223 151.094 L 322.223 151.094 Q 324.233 148.883 324.233 144.796 L 324.233 144.796 L 324.233 124.964 L 324.233 124.964 Z  M 366.979 124.495 L 366.979 124.495 Q 371.602 124.495 375.254 126.807 L 375.254 126.807 L 375.254 126.807 Q 378.905 129.118 381.016 133.44 L 381.016 133.44 L 381.016 133.44 Q 383.126 137.761 383.126 143.657 L 383.126 143.657 L 383.126 143.657 Q 383.126 149.486 381.016 153.841 L 381.016 153.841 L 381.016 153.841 Q 378.905 158.196 375.254 160.508 L 375.254 160.508 L 375.254 160.508 Q 371.602 162.819 366.979 162.819 L 366.979 162.819 L 366.979 162.819 Q 362.691 162.819 359.609 160.876 L 359.609 160.876 L 359.609 160.876 Q 356.527 158.933 355.12 155.583 L 355.12 155.583 L 355.12 180.172 L 343.663 180.172 L 343.663 124.964 L 355.12 124.964 L 355.12 131.731 L 355.12 131.731 Q 356.527 128.381 359.609 126.438 L 359.609 126.438 L 359.609 126.438 Q 362.691 124.495 366.979 124.495 L 366.979 124.495 L 366.979 124.495 Z  M 363.294 134.545 L 363.294 134.545 Q 359.676 134.545 357.365 136.991 L 357.365 136.991 L 357.365 136.991 Q 355.053 139.436 355.053 143.657 L 355.053 143.657 L 355.053 143.657 Q 355.053 147.811 357.365 150.29 L 357.365 150.29 L 357.365 150.29 Q 359.676 152.769 363.294 152.769 L 363.294 152.769 L 363.294 152.769 Q 366.979 152.769 369.223 150.357 L 369.223 150.357 L 369.223 150.357 Q 371.468 147.945 371.468 143.657 L 371.468 143.657 L 371.468 143.657 Q 371.468 139.369 369.223 136.957 L 369.223 136.957 L 369.223 136.957 Q 366.979 134.545 363.294 134.545 L 363.294 134.545 L 363.294 134.545 Z " fill="rgb(31,50,196)"/><path d=" M 227.686 134.009 L 211.07 152.769 L 228.356 152.769 L 228.356 162.35 L 198.541 162.35 L 198.541 153.305 L 214.621 134.478 L 198.809 134.478 L 198.809 124.964 L 227.686 124.964 L 227.686 134.009 L 227.686 134.009 Z  M 232.711 114.445 L 232.711 114.445 Q 232.711 111.832 234.587 110.124 L 234.587 110.124 L 234.587 110.124 Q 236.463 108.415 239.545 108.415 L 239.545 108.415 L 239.545 108.415 Q 242.627 108.415 244.503 110.124 L 244.503 110.124 L 244.503 110.124 Q 246.379 111.832 246.379 114.445 L 246.379 114.445 L 246.379 114.445 Q 246.379 116.991 244.503 118.7 L 244.503 118.7 L 244.503 118.7 Q 242.627 120.408 239.545 120.408 L 239.545 120.408 L 239.545 120.408 Q 236.463 120.408 234.587 118.7 L 234.587 118.7 L 234.587 118.7 Q 232.711 116.991 232.711 114.445 L 232.711 114.445 L 232.711 114.445 Z  M 233.783 124.964 L 245.24 124.964 L 245.24 162.35 L 233.783 162.35 L 233.783 124.964 L 233.783 124.964 Z  M 276.462 124.495 L 276.462 124.495 Q 281.085 124.495 284.737 126.807 L 284.737 126.807 L 284.737 126.807 Q 288.388 129.118 290.499 133.44 L 290.499 133.44 L 290.499 133.44 Q 292.609 137.761 292.609 143.657 L 292.609 143.657 L 292.609 143.657 Q 292.609 149.486 290.499 153.841 L 290.499 153.841 L 290.499 153.841 Q 288.388 158.196 284.737 160.508 L 284.737 160.508 L 284.737 160.508 Q 281.085 162.819 276.462 162.819 L 276.462 162.819 L 276.462 162.819 Q 272.174 162.819 269.092 160.876 L 269.092 160.876 L 269.092 160.876 Q 266.01 158.933 264.603 155.583 L 264.603 155.583 L 264.603 180.172 L 253.146 180.172 L 253.146 124.964 L 264.603 124.964 L 264.603 131.731 L 264.603 131.731 Q 266.01 128.381 269.092 126.438 L 269.092 126.438 L 269.092 126.438 Q 272.174 124.495 276.462 124.495 L 276.462 124.495 L 276.462 124.495 Z  M 272.777 134.545 L 272.777 134.545 Q 269.159 134.545 266.847 136.991 L 266.847 136.991 L 266.847 136.991 Q 264.536 139.436 264.536 143.657 L 264.536 143.657 L 264.536 143.657 Q 264.536 147.811 266.847 150.29 L 266.847 150.29 L 266.847 150.29 Q 269.159 152.769 272.777 152.769 L 272.777 152.769 L 272.777 152.769 Q 276.462 152.769 278.707 150.357 L 278.707 150.357 L 278.707 150.357 Q 280.951 147.945 280.951 143.657 L 280.951 143.657 L 280.951 143.657 Q 280.951 139.369 278.707 136.957 L 278.707 136.957 L 278.707 136.957 Q 276.462 134.545 272.777 134.545 L 272.777 134.545 L 272.777 134.545 Z " fill="rgb(46,46,46)"/></g></svg>